HIERARCHY
ROOT Root
{
  OFFSET 0.0 0.0 0.0
  CHANNELS 6 Xposition Yposition Zposition Zrotation Yrotation Xrotation
  JOINT Hips
  {
    OFFSET 0.0 100.0 0.0
    CHANNELS 6 Xposition Yposition Zposition Zrotation Yrotation Xrotation
    JOINT Spine1
    {
      OFFSET 5.003913 -0.037094 -0.013727
      CHANNELS 3 Zrotation Yrotation Xrotation
      JOINT Spine2
      {
        OFFSET 7.125363 -1e-06 0.0
        CHANNELS 3 Zrotation Yrotation Xrotation
        JOINT Chest
        {
          OFFSET 7.594027 1e-06 0.0
          CHANNELS 3 Zrotation Yrotation Xrotation
          JOINT Neck1
          {
            OFFSET 26.313086 -0.460272 -0.181672
            CHANNELS 3 Zrotation Yrotation Xrotation
            JOINT Neck2
            {
              OFFSET 8.045911 0.0 0.0
              CHANNELS 3 Zrotation Yrotation Xrotation
              JOINT Head
              {
                OFFSET 6.432774 0.0 0.0
                CHANNELS 3 Zrotation Yrotation Xrotation
                JOINT HeadEnd
                {
                  OFFSET 16.169773 0.06451 0.00362
                  CHANNELS 3 Zrotation Yrotation Xrotation
                }
                JOINT Jaw
                {
                  OFFSET 0.108741 3.12938 0.002639
                  CHANNELS 3 Zrotation Yrotation Xrotation
                }
                JOINT LeftEye
                {
                  OFFSET 4.45173 8.166359 3.206392
                  CHANNELS 3 Zrotation Yrotation Xrotation
                }
                JOINT RightEye
                {
                  OFFSET 4.436895 8.135758 -3.222429
                  CHANNELS 3 Zrotation Yrotation Xrotation
                }
              }
            }
          }
          JOINT LeftShoulder
          {
            OFFSET 23.218927 5.195579 1.621656
            CHANNELS 3 Zrotation Yrotation Xrotation
            JOINT LeftArm
            {
              OFFSET 15.902118 2e-06 -2e-06
              CHANNELS 3 Zrotation Yrotation Xrotation
              JOINT LeftForeArm
              {
                OFFSET 28.739307 0.0 -1e-06
                CHANNELS 3 Zrotation Yrotation Xrotation
                JOINT LeftHand
                {
                  OFFSET 27.093981 -4e-06 0.0
                  CHANNELS 3 Zrotation Yrotation Xrotation
                  JOINT LeftHandThumb1
                  {
                    OFFSET 2.276781 3.380274 0.83384
                    CHANNELS 3 Zrotation Yrotation Xrotation
                    JOINT LeftHandThumb2
                    {
                      OFFSET 4.705309 -1e-06 -1e-06
                      CHANNELS 3 Zrotation Yrotation Xrotation
                      JOINT LeftHandThumb3
                      {
                        OFFSET 2.798515 0.0 3e-06
                        CHANNELS 3 Zrotation Yrotation Xrotation
                        JOINT LeftHandThumbEnd
                        {
                          OFFSET 3.180793 4e-06 -4e-06
                          CHANNELS 3 Zrotation Yrotation Xrotation
                        }
                      }
                    }
                  }
                  JOINT LeftHandIndex1
                  {
                    OFFSET 3.247786 2.352677 0.137192
                    CHANNELS 3 Zrotation Yrotation Xrotation
                    JOINT LeftHandIndex2
                    {
                      OFFSET 6.367095 1e-06 0.0
                      CHANNELS 3 Zrotation Yrotation Xrotation
                      JOINT LeftHandIndex3
                      {
                        OFFSET 3.662364 0.0 0.0
                        CHANNELS 3 Zrotation Yrotation Xrotation
                        JOINT LeftHandIndex4
                        {
                          OFFSET 2.329242 4e-06 -4e-06
                          CHANNELS 3 Zrotation Yrotation Xrotation
                          JOINT LeftHandIndexEnd
                          {
                            OFFSET 2.767823 1e-06 0.0
                            CHANNELS 3 Zrotation Yrotation Xrotation
                          }
                        }
                      }
                    }
                  }
                  JOINT LeftHandMiddle1
                  {
                    OFFSET 3.163612 0.945023 -0.406112
                    CHANNELS 3 Zrotation Yrotation Xrotation
                    JOINT LeftHandMiddle2
                    {
                      OFFSET 6.276789 3e-06 0.0
                      CHANNELS 3 Zrotation Yrotation Xrotation
                      JOINT LeftHandMiddle3
                      {
                        OFFSET 4.35652 -1e-06 4e-06
                        CHANNELS 3 Zrotation Yrotation Xrotation
                        JOINT LeftHandMiddle4
                        {
                          OFFSET 2.996877 0.0 8e-06
                          CHANNELS 3 Zrotation Yrotation Xrotation
                          JOINT LeftHandMiddleEnd
                          {
                            OFFSET 2.323256 3e-06 -4e-06
                            CHANNELS 3 Zrotation Yrotation Xrotation
                          }
                        }
                      }
                    }
                  }
                  JOINT LeftHandRing1
                  {
                    OFFSET 2.882606 -0.309162 0.107445
                    CHANNELS 3 Zrotation Yrotation Xrotation
                    JOINT LeftHandRing2
                    {
                      OFFSET 6.033198 0.0 4e-06
                      CHANNELS 3 Zrotation Yrotation Xrotation
                      JOINT LeftHandRing3
                      {
                        OFFSET 4.350578 3e-06 0.0
                        CHANNELS 3 Zrotation Yrotation Xrotation
                        JOINT LeftHandRing4
                        {
                          OFFSET 2.651321 2e-06 -7e-06
                          CHANNELS 3 Zrotation Yrotation Xrotation
                          JOINT LeftHandRingEnd
                          {
                            OFFSET 1.937663 1e-06 -4e-06
                            CHANNELS 3 Zrotation Yrotation Xrotation
                          }
                        }
                      }
                    }
                  }
                  JOINT LeftHandPinky1
                  {
                    OFFSET 2.865315 -1.525436 0.575687
                    CHANNELS 3 Zrotation Yrotation Xrotation
                    JOINT LeftHandPinky2
                    {
                      OFFSET 5.54936 1e-06 -8e-06
                      CHANNELS 3 Zrotation Yrotation Xrotation
                      JOINT LeftHandPinky3
                      {
                        OFFSET 3.070974 0.0 -4e-06
                        CHANNELS 3 Zrotation Yrotation Xrotation
                        JOINT LeftHandPinky4
                        {
                          OFFSET 1.549672 1e-06 0.0
                          CHANNELS 3 Zrotation Yrotation Xrotation
                          JOINT LeftHandPinkyEnd
                          {
                            OFFSET 1.952123 0.0 0.0
                            CHANNELS 3 Zrotation Yrotation Xrotation
                          }
                        }
                      }
                    }
                  }
                }
              }
            }
          }
          JOINT RightShoulder
          {
            OFFSET 23.161716 5.296122 -1.380114
            CHANNELS 3 Zrotation Yrotation Xrotation
            JOINT RightArm
            {
              OFFSET -16.027195 -2e-06 1.1e-05
              CHANNELS 3 Zrotation Yrotation Xrotation
              JOINT RightForeArm
              {
                OFFSET -28.736639 4e-06 2e-06
                CHANNELS 3 Zrotation Yrotation Xrotation
                JOINT RightHand
                {
                  OFFSET -27.133619 6e-06 0.0
                  CHANNELS 3 Zrotation Yrotation Xrotation
                  JOINT RightHandThumb1
                  {
                    OFFSET -2.274328 -3.351035 -0.83067
                    CHANNELS 3 Zrotation Yrotation Xrotation
                    JOINT RightHandThumb2
                    {
                      OFFSET -4.703594 -3e-06 2e-06
                      CHANNELS 3 Zrotation Yrotation Xrotation
                      JOINT RightHandThumb3
                      {
                        OFFSET -2.794935 -4e-06 -3e-06
                        CHANNELS 3 Zrotation Yrotation Xrotation
                        JOINT RightHandThumbEnd
                        {
                          OFFSET -3.183852 4e-06 1e-06
                          CHANNELS 3 Zrotation Yrotation Xrotation
                        }
                      }
                    }
                  }
                  JOINT RightHandIndex1
                  {
                    OFFSET -3.253496 -2.33755 -0.127667
                    CHANNELS 3 Zrotation Yrotation Xrotation
                    JOINT RightHandIndex2
                    {
                      OFFSET -6.344434 0.0 0.0
                      CHANNELS 3 Zrotation Yrotation Xrotation
                      JOINT RightHandIndex3
                      {
                        OFFSET -3.654871 0.0 -8e-06
                        CHANNELS 3 Zrotation Yrotation Xrotation
                        JOINT RightHandIndex4
                        {
                          OFFSET -2.327586 -1e-06 0.0
                          CHANNELS 3 Zrotation Yrotation Xrotation
                          JOINT RightHandIndexEnd
                          {
                            OFFSET -2.770001 3e-06 8e-06
                            CHANNELS 3 Zrotation Yrotation Xrotation
                          }
                        }
                      }
                    }
                  }
                  JOINT RightHandMiddle1
                  {
                    OFFSET -3.168223 -0.944764 0.411762
                    CHANNELS 3 Zrotation Yrotation Xrotation
                    JOINT RightHandMiddle2
                    {
                      OFFSET -6.266691 -1e-06 -4e-06
                      CHANNELS 3 Zrotation Yrotation Xrotation
                      JOINT RightHandMiddle3
                      {
                        OFFSET -4.348901 0.0 0.0
                        CHANNELS 3 Zrotation Yrotation Xrotation
                        JOINT RightHandMiddle4
                        {
                          OFFSET -3.00024 2e-06 -4e-06
                          CHANNELS 3 Zrotation Yrotation Xrotation
                          JOINT RightHandMiddleEnd
                          {
                            OFFSET -2.321477 -4e-06 -4e-06
                            CHANNELS 3 Zrotation Yrotation Xrotation
                          }
                        }
                      }
                    }
                  }
                  JOINT RightHandRing1
                  {
                    OFFSET -2.885654 0.293261 -0.119232
                    CHANNELS 3 Zrotation Yrotation Xrotation
                    JOINT RightHandRing2
                    {
                      OFFSET -6.032835 -1e-06 -4e-06
                      CHANNELS 3 Zrotation Yrotation Xrotation
                      JOINT RightHandRing3
                      {
                        OFFSET -4.33881 0.0 -4e-06
                        CHANNELS 3 Zrotation Yrotation Xrotation
                        JOINT RightHandRing4
                        {
                          OFFSET -2.654903 -4e-06 -4e-06
                          CHANNELS 3 Zrotation Yrotation Xrotation
                          JOINT RightHandRingEnd
                          {
                            OFFSET -1.935122 0.0 4e-06
                            CHANNELS 3 Zrotation Yrotation Xrotation
                          }
                        }
                      }
                    }
                  }
                  JOINT RightHandPinky1
                  {
                    OFFSET -2.866241 1.503904 -0.60527
                    CHANNELS 3 Zrotation Yrotation Xrotation
                    JOINT RightHandPinky2
                    {
                      OFFSET -5.553177 -2e-06 0.0
                      CHANNELS 3 Zrotation Yrotation Xrotation
                      JOINT RightHandPinky3
                      {
                        OFFSET -3.062664 -1e-06 -4e-06
                        CHANNELS 3 Zrotation Yrotation Xrotation
                        JOINT RightHandPinky4
                        {
                          OFFSET -1.546529 2e-06 4e-06
                          CHANNELS 3 Zrotation Yrotation Xrotation
                          JOINT RightHandPinkyEnd
                          {
                            OFFSET -1.952341 0.0 -4e-06
                            CHANNELS 3 Zrotation Yrotation Xrotation
                          }
                        }
                      }
                    }
                  }
                }
              }
            }
          }
        }
      }
    }
    JOINT LeftLeg
    {
      OFFSET -8.443107 2.567604 10.043214
      CHANNELS 3 Zrotation Yrotation Xrotation
      JOINT LeftShin
      {
        OFFSET 43.229198 1e-06 -1e-06
        CHANNELS 3 Zrotation Yrotation Xrotation
        JOINT LeftFoot
        {
          OFFSET 42.298611 1e-06 1e-06
          CHANNELS 3 Zrotation Yrotation Xrotation
          JOINT LeftToeBase
          {
            OFFSET 14.165858 1e-06 0.0
            CHANNELS 3 Zrotation Yrotation Xrotation
            JOINT LeftToeEnd
            {
              OFFSET 6.7141 -0.234461 0.0
              CHANNELS 3 Zrotation Yrotation Xrotation
            }
          }
        }
      }
    }
    JOINT RightLeg
    {
      OFFSET -8.303923 2.592729 -10.047278
      CHANNELS 3 Zrotation Yrotation Xrotation
      JOINT RightShin
      {
        OFFSET -43.369682 0.0 1e-06
        CHANNELS 3 Zrotation Yrotation Xrotation
        JOINT RightFoot
        {
          OFFSET -42.260784 4e-06 2e-06
          CHANNELS 3 Zrotation Yrotation Xrotation
          JOINT RightToeBase
          {
            OFFSET -14.222245 -2e-06 -1e-06
            CHANNELS 3 Zrotation Yrotation Xrotation
            JOINT RightToeEnd
            {
              OFFSET -6.660062 0.232574 -2e-06
              CHANNELS 3 Zrotation Yrotation Xrotation
            }
          }
        }
      }
    }
  }
}
MOTION
Frames: 4
Frame Time: 0.03333333333333333
0.0 0.0 0.0 0.0 -0.0 0.0 0.284615 100.018585 -0.186567 90.179642 -0.527602 96.542892 0.455447 0.701406 0.454638 -10.047174 -0.067379 0.989742 19.273434 -2.878652 -1.481142 18.818027 8.071036 2.178289 -2.290837 -1.092809 -8.411029 -23.909924 -2.063676 -10.426838 -0.001025 -0.000611 -0.002645 -0.041807 0.003083 -0.044185 -0.031859 0.110607 -0.065444 -0.004652 -0.101911 -0.032488 -124.146629 -79.733673 132.054398 59.494522 -31.002926 -56.428814 20.707527 0.079742 0.14119 -2.080196 5.857427 -30.752821 17.663012 -26.353367 52.488422 -19.478436 -14.380171 29.422327 -0.010031 -8.766521 0.005767 17.104404 -17.09499 5.799637 -0.600034 -1.793919 -3.89585 -4.835983 -11.053542 -2.944411 0.013201 -21.005838 -0.005074 -5.021332 -25.054216 -4.045431 -0.005078 -0.006912 -0.003292 -10.647549 -5.710396 -3.556992 10.582823 -17.910364 -3.133589 -0.001991 -13.827451 -0.001138 -0.492933 -31.206135 -4.032602 -11.428897 -59.086723 7.429457 -14.001164 -7.14573 -2.889066 13.779007 -8.410265 -3.211281 0.357639 -34.251228 0.755194 -0.969477 -17.747633 2.608271 0.006267 0.005048 0.014602 -17.362921 -20.142311 -4.194979 21.779533 -1.611996 3.866972 -0.005463 -6.344532 0.004638 -1.683408 -22.605852 -6.216126 0.012301 -0.001582 0.006734 38.794319 -81.056923 150.092331 61.845787 -16.809868 -55.406399 15.192506 1.381246 0.504454 1.340845 -1.286067 -55.712517 22.204382 -20.412085 49.953949 -16.715639 -16.753071 28.510838 0.003782 -12.721426 -0.017174 17.398487 -17.538391 2.626518 -0.107281 -1.518051 -4.272517 -5.045701 -5.620688 -2.967566 -0.011125 -11.016011 0.018824 -6.109735 -15.907193 -3.838839 -0.010814 -0.000843 -0.017239 -10.296627 -5.697361 -4.335825 11.040051 -11.302318 -2.384806 -1.404321 -14.247238 -6.300478 -0.666497 -26.944773 -3.792059 -4.303394 -50.237949 -3.382074 -13.717072 -7.374055 -3.714042 18.140539 -14.045561 -3.232895 0.001414 -18.777037 -0.003316 -0.431981 -8.438413 2.567874 0.002815 -0.005323 -0.013729 -15.933814 -20.125927 -5.454453 30.446102 -7.181027 1.726145 -0.000583 -8.172605 0.000254 -1.85822 -22.892908 -6.189644 -0.000227 0.00444 0.001965 174.701584 -6.100618 -12.984573 14.041011 -0.073713 0.497194 -76.726006 -3.772913 -11.113985 -4.787658 1.715464 2.164893 -0.999097 -0.008498 -0.003675 3.903368 -7.657437 -22.592815 6.143295 -0.002193 0.222362 -75.555618 2.354897 -11.47645 -5.315642 0.594149 1.65841 -0.989848 -0.002003 5.7e-05 
0.0 0.0 0.0 0.0 -0.0 0.0 0.239975 100.013054 -0.197241 90.167358 -0.535532 96.397011 0.461744 0.726681 0.402505 -10.024012 -0.05646 0.910558 19.189587 -2.732678 -1.584105 18.855141 8.574925 2.106664 -2.25309 -1.141901 -8.966979 -23.990061 -2.271024 -11.095994 0.001 -0.000216 0.003369 -0.043078 0.006222 -0.061538 -0.048233 0.113926 -0.089603 -0.01487 -0.101169 -0.043365 -123.584038 -79.481407 131.486725 59.822651 -31.18339 -56.518085 20.828913 0.225082 0.162007 -2.06396 5.910988 -30.986519 17.65308 -26.270363 52.451916 -19.484983 -14.381218 29.418705 0.002635 -8.75362 0.002708 17.035065 -17.05748 5.788344 -0.606202 -1.798435 -3.90102 -4.808506 -11.037937 -2.935281 0.021289 -20.940016 -0.017176 -4.986027 -24.994116 -4.029942 -0.001322 0.001333 -0.017838 -10.632022 -5.680398 -3.576189 10.590922 -17.907764 -3.134576 0.010796 -13.801736 -0.0057 -0.458958 -31.136234 -4.045298 -11.281089 -58.869968 7.300664 -13.981113 -7.145963 -2.886523 13.785555 -8.404951 -3.221261 0.390195 -34.180794 0.739815 -0.945117 -17.70878 2.629533 0.003956 -0.004616 0.008806 -17.308344 -20.084618 -4.246408 21.735302 -1.634806 3.872725 0.008668 -6.344603 -0.001157 -1.675124 -22.54624 -6.21541 -0.006601 -0.001444 0.000516 39.597019 -80.380989 148.793045 60.644138 -16.433208 -55.701248 14.508794 1.512074 0.457317 1.436171 -1.538225 -54.672974 22.18585 -20.357243 49.938488 -16.696453 -16.745243 28.460833 -0.004861 -12.699409 -0.001004 17.4853 -17.553602 2.525862 -0.107927 -1.50753 -4.284478 -5.037418 -5.617863 -2.943286 0.008812 -11.00513 -0.006398 -6.098986 -15.884189 -3.848094 3.1e-05 -0.001912 -0.001245 -10.282174 -5.674249 -4.359404 11.020723 -11.294242 -2.349442 -1.376626 -14.216162 -6.328955 -0.631012 -26.898256 -3.820503 -4.140709 -50.131596 -3.44767 -13.698098 -7.348951 -3.727373 18.136486 -14.054704 -3.258859 0.00398 -18.767675 0.005876 -0.424852 -8.445354 2.567534 -0.002092 0.006367 0.003859 -15.914356 -20.086676 -5.487205 30.400322 -7.20108 1.743 -0.000716 -8.158699 -0.006968 -1.844939 -22.851717 -6.162684 0.0 -0.0 0.0 174.708252 -6.124876 -13.012261 14.04117 -0.081463 0.501208 -76.706375 -3.666074 -11.20832 -4.783773 1.695513 2.168146 -1.001809 -0.002434 -0.003464 3.862566 -7.65274 -22.624147 6.131737 -0.01452 0.264 -75.60334 2.43015 -11.515614 -5.281835 0.575287 1.64982 -1.007009 0.002975 -0.00189 
0.0 0.0 0.0 0.0 -0.0 0.0 0.283496 99.982033 -0.184487 90.168137 -0.539258 96.227142 0.477534 0.755592 0.380324 -10.009724 -0.04616 0.816267 19.129717 -2.597738 -1.695735 19.018379 9.099769 2.029388 -2.242724 -1.176022 -9.512012 -24.11092 -2.454413 -11.744305 -3.6e-05 1.6e-05 -0.006699 -0.047142 0.01046 -0.088886 -0.069745 0.121001 -0.106658 -0.03988 -0.101167 -0.060784 -123.743889 -79.923424 131.560562 60.280273 -31.284883 -56.415768 20.859402 0.331769 0.150823 -1.995584 5.981091 -31.593973 17.672029 -26.298302 52.412392 -19.496458 -14.416009 29.435848 -0.001538 -8.801616 -0.000528 17.038914 -17.072689 5.838918 -0.60759 -1.784117 -3.893113 -4.809995 -11.073653 -2.93635 0.001099 -21.007521 -0.002093 -5.042565 -25.075266 -4.009327 0.002026 -0.005334 -0.010669 -10.65185 -5.674066 -3.573363 10.592326 -17.973249 -3.104112 -0.001303 -13.843572 -0.00044 -0.523552 -31.253525 -4.029458 -11.443733 -59.390366 7.352185 -13.999165 -7.143749 -2.874738 13.798327 -8.412846 -3.231348 0.350238 -34.262875 0.765687 -0.951712 -17.769676 2.620236 -0.00147 0.004401 -0.006424 -17.366066 -20.113426 -4.195647 21.77821 -1.634068 3.854105 0.006829 -6.345624 0.001951 -1.711061 -22.604275 -6.18144 -0.004949 0.00239 0.000138 40.565441 -80.328094 148.118164 59.800137 -16.06839 -55.652096 14.260874 1.465566 0.476175 1.615641 -1.666081 -53.529137 22.137033 -20.403658 49.875156 -16.671696 -16.760527 28.462517 0.013091 -12.662988 0.007016 17.522009 -17.453096 2.526536 -0.089702 -1.523634 -4.264101 -5.041908 -5.615074 -2.940566 -0.008021 -11.030255 0.007475 -6.133385 -15.901637 -3.828914 0.002927 0.000561 0.009587 -10.25944 -5.669531 -4.31138 11.025655 -11.313157 -2.376495 -1.384813 -14.237675 -6.302669 -0.642703 -26.935219 -3.809876 -4.268371 -50.130985 -3.313637 -13.688112 -7.35995 -3.684978 18.140478 -14.052766 -3.242468 -0.012401 -18.802582 -0.000786 -0.436752 -8.468123 2.551678 0.000792 0.003632 -0.000606 -15.909781 -20.090702 -5.438259 30.407015 -7.180394 1.732179 -0.005476 -8.167415 -0.009363 -1.883202 -22.886442 -6.161935 -0.001172 0.000504 -9e-06 174.540344 -6.213494 -13.011693 14.434272 -0.077361 0.490311 -76.90329 -3.650561 -11.374676 -4.755079 1.704485 2.165065 -0.999932 0.00425 0.002629 3.873882 -7.616428 -22.596941 6.004798 -0.01188 0.247301 -75.770973 2.478576 -11.504469 -5.268038 0.557921 1.642923 -0.995631 -0.004421 0.000446 
0.0 0.0 0.0 0.0 -0.0 0.0 0.241723 99.982155 -0.114875 90.125992 -0.546434 96.084969 0.507577 0.779759 0.356383 -10.012937 -0.052634 0.719418 19.095331 -2.438007 -1.794803 19.173878 9.608609 1.960903 -2.218763 -1.234295 -9.912101 -24.056787 -2.583954 -12.324647 0.001844 0.00037 0.002421 -0.050051 0.015431 -0.079681 -0.106763 0.121895 -0.093328 -0.072642 -0.09515 -0.052152 -122.779129 -79.803833 130.601089 60.765125 -31.236473 -56.318886 20.925653 0.374206 0.118389 -1.997054 6.022883 -32.332054 17.619446 -26.250694 52.351856 -19.471943 -14.418331 29.364958 -0.008694 -8.768879 0.003975 16.976252 -17.039436 5.869942 -0.585506 -1.777573 -3.892568 -4.808823 -11.031591 -2.933052 0.025951 -20.933578 -0.006361 -5.013072 -24.987597 -4.03868 -0.007131 0.001021 0.005217 -10.611518 -5.680415 -3.550406 10.578068 -17.888281 -3.137641 0.005507 -13.803172 0.011328 -0.482287 -31.126928 -4.008134 -11.295207 -59.088192 7.264633 -13.964039 -7.126234 -2.873923 13.794468 -8.405947 -3.230921 0.36635 -34.180943 0.751598 -0.946418 -17.719828 2.606482 -0.00232 0.00231 0.008083 -17.323605 -20.062786 -4.197241 21.757713 -1.634299 3.848886 0.001496 -6.331533 -0.007908 -1.680459 -22.562366 -6.189882 0.000728 -0.003881 -0.006199 41.532433 -79.76442 146.836639 58.87262 -15.672069 -55.392101 14.153718 1.329192 0.447987 1.946069 -1.860519 -52.45742 22.158216 -20.359669 49.957901 -16.708649 -16.739891 28.496462 -0.000463 -12.686276 -0.000347 17.461123 -17.301905 2.50417 -0.110212 -1.512596 -4.276102 -5.046521 -5.603983 -2.977373 -0.00082 -11.022824 0.001868 -6.100073 -15.891401 -3.837095 -0.003796 -0.003835 -0.001965 -10.288632 -5.671388 -4.352345 11.025078 -11.296712 -2.374511 -1.371777 -14.230464 -6.335237 -0.6086 -26.902283 -3.845115 -4.07346 -49.969601 -3.409556 -13.709884 -7.361657 -3.733499 18.124249 -14.034745 -3.244734 -0.008359 -18.774387 0.01355 -0.433247 -8.449044 2.551052 -0.000946 0.000664 -0.000396 -15.917587 -20.077297 -5.492842 30.413839 -7.207652 1.731775 0.002719 -8.162848 -0.008009 -1.867965 -22.864676 -6.148552 -0.000188 -0.00454 -0.007445 174.643906 -6.251664 -13.03489 14.392303 -0.071905 0.495907 -76.889221 -3.640769 -11.525815 -4.735607 1.694148 2.160132 -0.995203 -0.000549 0.000161 3.851947 -7.546946 -22.530453 5.909771 -0.021946 0.241083 -75.749481 2.542864 -11.493484 -5.196421 0.573817 1.647878 -0.997688 -0.000166 -0.000692 
